<?xml version="1.0" encoding="utf-8" ?>
<svg xmlns="http://www.w3.org/2000/svg" xmlns:xlink="http://www.w3.org/1999/xlink" width="2224" height="576">
	<path fill="#EEB941" transform="scale(2.34105 2.34146)" d="M356.904 48.5022C367.611 47.9959 379.375 48.1057 389.376 52.4654C395.815 55.2724 400.978 59.8646 403.55 66.5375C406.03 72.9736 405.741 80.5342 402.953 86.8226C400.468 92.4264 396.076 97.5702 390.274 99.7972C395.306 100.841 401.003 104.268 404.772 107.74C410.119 112.666 413.037 119.314 413.351 126.539C413.711 134.815 410.58 142.718 405.004 148.79C396.117 158.469 383.821 161.22 371.21 161.745C362.969 161.981 354.68 161.008 346.431 160.835C339.418 160.687 332.268 161.342 325.288 160.865C323.111 160.716 320.907 160.427 318.897 159.541C318.558 159.012 318.107 158.367 318.037 157.727C317.348 151.458 329.608 153.18 332.613 148.789C333.688 147.217 333.675 67.1173 332.725 61.4417C331.891 56.4543 323.509 57.8348 320.141 55.3626C319.186 54.6614 318.473 53.8252 318.296 52.6201C318.176 51.7955 318.44 50.7627 318.982 50.1095C319.858 49.0546 322.032 48.8082 323.307 48.6824C334.249 47.6023 345.766 49.5822 356.904 48.5022ZM385.707 145.509C389.393 143.206 391.248 139.064 392.192 134.95C393.582 128.889 393.258 122.166 389.907 116.777C386.202 110.821 379.69 107.809 373.087 106.3C366.497 104.793 358.848 104.184 352.139 105.129L352.173 105.282C354.102 114.176 349.114 145.471 356.105 150.09C360.765 153.168 369.582 152.687 374.916 151.544C378.494 150.777 383.339 149.275 385.456 146.07C385.578 145.884 385.664 145.731 385.707 145.509ZM352.087 95.3799C359.83 95.4313 367.447 95.64 375.149 96.5609C376.976 96.7621 378.275 97.0209 379.797 95.7918C383.791 92.5656 385.383 86.1536 385.857 81.2161C386.44 75.1602 385.303 68.8315 381.366 64.0292C377.929 59.8361 373.086 57.9042 367.8 57.4136C365.74 57.2225 363.684 57.2541 361.619 57.3224C359.231 57.5382 356.027 57.4233 354.379 59.4287C349.335 65.5668 355.252 89.9399 352.087 95.3799Z"/>
	<path fill="#EEB941" transform="scale(2.34105 2.34146)" d="M63.2437 48.8371C64.4807 48.7719 65.7188 48.7294 66.9573 48.7096C73.4433 48.6496 79.9389 48.9637 86.4291 48.9336C92.2949 48.9064 98.5577 48.3936 104.371 49.0324C106.056 49.2176 108.178 49.4383 109.442 50.6782C110.028 51.7317 110.719 52.6907 110.441 53.9454C108.882 56.5818 102.085 56.4657 99.2757 57.7999C97.4978 58.6443 96.2619 59.9106 95.6075 61.7816C94.0605 66.2049 94.8079 114.305 95.6045 121.251C96.1275 125.811 97.1303 130.386 99.1274 134.542C102.066 140.657 106.913 145.023 113.329 147.228C121.541 150.05 131.828 149.84 139.664 145.957C146.526 142.557 150.927 136.621 153.319 129.494C154.306 126.507 154.934 123.413 155.19 120.277C155.678 114.226 156.759 63.3114 155.424 60.8662C153.481 57.3078 147.304 56.9081 143.766 55.767C142.343 55.3077 141.157 54.6896 140.445 53.3101C140.318 52.1586 140.558 51.5989 141.157 50.6226C145.3 47.1998 162.563 48.8179 168.5 48.8624C171.676 48.7949 177.272 48.0341 179.979 49.7221C180.724 50.1867 181.337 50.8151 181.501 51.7243C182.196 55.5937 177.818 56.4725 175.044 57.0091C172.969 57.4105 168.887 57.7222 167.664 59.7452C165.956 62.5705 166.769 68.6422 166.834 71.8428C167.27 93.2356 170.702 129.167 157.82 146.454C150.924 155.708 140.704 160.825 129.427 162.45C116.614 164.295 101.791 162.068 91.2393 154.138C75.6645 142.434 76.169 121.74 76.0934 104.15C76.0334 95.1036 76.038 86.0571 76.1074 77.011C76.1387 72.1761 76.5584 66.9444 75.8439 62.1707C74.8966 55.8417 66.2355 58.1682 62.4003 55.0316C61.6846 54.4463 61.2735 53.8105 61.2086 52.8877C61.0994 51.3322 62.2939 49.9333 63.2437 48.8371Z"/>
	<path fill="#EEB941" transform="scale(2.34105 2.34146)" d="M573.524 42.9338C575.033 42.8039 576.441 42.5377 577.723 43.3848C578.974 49.8248 578.083 65.0775 578.069 72.5795C578.039 88.5632 578.674 104.785 577.941 120.728C577.887 121.901 577.7 122.913 577.197 123.983C582.708 122.404 592.041 113.954 596.612 109.964C600.237 106.799 607.728 100.486 608.071 95.391C607.481 92.4395 601.102 90.4242 598.83 88.6186C597.853 87.842 597.695 87.3735 597.561 86.1877C597.754 85.8187 597.97 85.4558 598.273 85.1653C599.047 84.424 600.259 84.0267 601.301 83.8759C604.264 83.4468 607.703 83.8587 610.722 83.8477C615.179 83.8315 619.655 83.521 624.109 83.6496C626.267 83.7119 627.787 83.6566 629.332 85.2993C629.494 86.1424 629.493 86.8504 629.181 87.6611C626.472 94.7147 607.262 113.895 600.779 116.69C605.634 119.309 618.231 142.615 624.157 148.892C627.269 152.188 633.763 152.356 636.114 155.695C636.299 156.978 636.373 157.739 635.703 158.92C633.806 160.864 631.153 160.727 628.63 160.801C623.767 161.002 617.647 161.792 612.998 160.238C602.555 156.747 596.013 132.817 587.144 127.453C587.078 127.626 587.013 127.786 586.928 127.95C585.552 130.623 580.039 132.916 577.289 133.832C579.686 137.816 577.102 144.607 578.288 149.148C579.173 152.54 585.767 153.095 588.642 154.852C589.933 155.641 590.477 156.334 590.824 157.782C590.68 158.177 590.503 158.583 590.215 158.897C588.74 160.511 586.706 160.798 584.645 160.926C580.54 161.181 576.316 160.802 572.197 160.809C566.245 160.82 559.831 161.371 553.939 160.612C552.25 160.394 549.977 160.009 548.681 158.815C548.262 158.428 548.221 157.809 548.221 157.248C548.219 153.322 556.747 153.407 559.186 151.056C559.891 150.377 560.354 149.356 560.453 148.383C561.541 137.713 560.732 124.546 560.595 113.575C560.373 97.5029 560.36 81.4287 560.555 65.3563C560.578 55.9027 561.296 56.3864 552.229 53.3235C551.054 52.9268 549.606 52.4526 548.732 51.5286C548.093 50.8528 548.216 50.5123 548.263 49.6498C550.917 45.8579 568.436 43.8506 573.524 42.9338Z"/>
	<path fill="#EEB941" transform="scale(2.34105 2.34146)" d="M241.529 47.0722C251.142 46.2112 262.429 47.8802 271.531 51.0209C275.178 52.2791 280.76 54.542 282.481 58.1827C284.473 62.3998 284.569 71.2249 283.021 75.5722C282.549 76.8964 281.962 77.7137 280.656 78.3215C275.833 78.0231 269.758 63.9924 263.747 60.4245C256.108 55.8908 243.352 55.6707 234.959 57.7586C225.283 60.1604 216.972 66.3425 211.886 74.9223C203.964 88.1669 202.344 104.735 206.072 119.573C208.89 130.793 214.866 140.936 224.964 146.973C233.26 151.932 245.947 153.798 255.3 151.389C259.144 150.399 265.712 147.979 267.807 144.449C274.159 141.527 273.788 131.172 279.465 127.848C280.36 127.323 280.722 127.145 281.732 127.415C283.952 129.486 284.692 134.278 284.939 137.218C285.319 141.735 284.367 146.123 281.358 149.616C274.222 157.899 258.182 161.751 247.744 162.562C231.336 163.838 214.484 159.972 201.806 149.069C190.447 139.3 184.578 125.441 183.48 110.656C182.273 94.945 187.305 79.3914 197.483 67.3677C208.615 54.4704 224.873 48.2796 241.529 47.0722Z"/>
	<path fill="#EEB941" transform="scale(2.34105 2.34146)" d="M661.314 82.3867C670.925 81.4436 678.976 82.2275 686.844 88.3478C691.492 91.9626 697.863 99.2832 698.564 105.283C698.732 106.723 698.457 108.152 697.518 109.297C693.979 113.608 655.4 118.99 647.849 119.627C651.091 123.514 648.461 134.402 658.296 143.174C662.967 147.275 669.076 149.35 675.276 148.941C679.662 148.651 688.005 146.589 690.979 143.19C692.842 142.37 694.314 141.882 696.373 142.304C696.759 142.616 697.253 142.88 697.406 143.362C697.814 144.641 697.2 146.096 696.602 147.228C693.212 153.646 684.814 158.634 678.017 160.71C669.28 163.378 658.3 162.227 650.274 157.898C641.925 153.396 636.325 145.394 633.668 136.404C630.238 124.797 631.527 111.365 637.331 100.722C642.746 90.7915 650.689 85.5261 661.314 82.3867ZM648.399 111.621C653.827 110.956 659.095 110.029 664.363 108.545C668.675 107.837 676.684 107.403 679.483 103.541C680.208 102.541 680.502 101.356 680.269 100.138C679.777 97.5581 677.24 95.5192 675.161 94.1831C670.65 91.2846 667.103 90.9698 661.898 91.2057L661.723 91.348C659.285 93.3169 656.496 94.5363 654.447 97.0347C651.111 101.103 652.1 108.3 648.399 111.621Z"/>
	<path fill="#EEB941" transform="scale(2.34105 2.34146)" d="M770.531 82.3867C779.763 81.4433 789.184 82.8805 796.624 88.8119C801.629 92.8025 806.617 99.8742 807.303 106.352C807.425 107.5 807.197 108.596 806.442 109.494C803.066 113.507 763.766 119.051 756.706 119.546C757.769 121.204 757.997 123.316 758.356 125.218C759.631 131.957 761.45 137.489 766.565 142.366C771.246 146.79 777.509 149.144 783.944 148.9C788.61 148.76 796.757 146.68 800.017 143.19C801.945 142.408 803.535 141.998 805.602 142.492C805.899 142.75 806.419 143.076 806.534 143.447C806.94 144.767 806.393 146.055 805.782 147.217C802.299 153.834 793.664 158.707 786.682 160.824C778.017 163.451 767.083 162.268 759.133 157.979C750.835 153.502 745.396 145.617 742.752 136.696C739.227 124.575 740.586 111.555 746.537 100.425C752.049 90.2775 759.736 85.5972 770.531 82.3867ZM757.149 111.552C760.728 111.009 768.067 110.566 771.048 109.013C775.567 108.201 786.437 107.369 789.135 103.404C789.705 102.566 789.918 101.635 789.715 100.634C789.121 97.7027 785.32 94.9955 782.962 93.5293C779.96 91.6633 776.815 90.4794 773.22 90.7414C769.653 91.4226 766.326 93.4271 764.251 96.4458C761.766 100.062 759.966 109.38 757.149 111.552Z"/>
	<path fill="#EEB941" transform="scale(2.34105 2.34146)" d="M863.758 83.7792C867.72 83.3179 889.11 83.3893 891.61 85.1398C892.339 85.6498 892.265 85.9829 892.396 86.8011C891.017 91.4687 884.342 90.604 881.508 97.9074C872.156 122.016 853.407 175.072 836.899 192.678C833.761 196.025 829.838 198.992 825.067 199.104C822.813 199.156 820.02 198.755 818.33 197.113C816.788 195.615 815.083 193.214 815.096 190.965C815.139 183.854 831.928 180.201 837.748 174.285C840.356 171.634 842.386 168.293 842.317 164.468C842.253 160.953 837.146 146.785 834.676 144.471C834.65 144.446 834.622 144.422 834.595 144.397C834.767 143.739 834.566 142.998 834.351 142.37C831.529 134.123 827.849 126.013 824.671 117.883C822.289 111.791 818.658 99.3578 815.241 94.587C813.166 91.6908 807.509 91.0528 806.408 87.8964C806.169 87.2112 806.223 86.3329 806.549 85.6815C806.91 84.9621 807.283 84.3802 808.079 84.1453C811.861 83.0301 842.987 83.517 846.43 85.3162C848.756 91.1552 832.908 90.4811 836.371 101.374C839.537 111.329 843.97 121.394 847.876 131.107C849.347 134.763 851.497 138.835 852.417 142.651C852.59 143.371 852.48 144.139 852.232 144.828C852.732 144.441 853.198 144.02 853.614 143.543C856.823 139.862 871.522 101.698 870.997 96.3941C870.649 92.8891 864.295 90.6366 861.879 88.5592C860.995 87.7985 860.876 87.2607 860.822 86.1626C861.468 84.8625 862.528 84.4188 863.758 83.7792Z"/>
	<path fill="#EEB941" transform="scale(2.34105 2.34146)" d="M449.33 82.3867C456.516 81.4676 463.71 81.9984 470.327 85.1294C476.962 88.2693 483.237 93.9016 485.71 100.947C486.476 103.13 487.664 106.935 486.642 109.058C481.767 114.082 444.952 118.835 436.404 119.835C438.737 122.403 439.112 134.633 445.941 142.056C450.143 146.625 455.917 148.749 462.043 148.96C467.514 149.148 475.652 147.121 479.773 143.27C481.156 142.714 482.995 142.01 484.51 142.305C485.697 142.535 485.844 142.77 486.501 143.702C486.559 144.69 486.444 145.48 486.051 146.382C483.292 152.705 475.542 157.369 469.342 159.818C460.69 163.234 450.362 162.9 441.846 159.199C433.516 155.578 427.308 148.944 423.998 140.506C419.475 128.977 419.765 115.07 424.725 103.735C429.807 92.1185 437.899 86.8809 449.33 82.3867ZM437.216 111.61C442.633 110.917 448.004 109.901 453.3 108.568C457.734 107.881 465.223 107.544 468.092 103.721C468.894 102.652 469.198 101.418 468.964 100.102C468.5 97.4898 466.051 95.3553 463.956 93.97C459.829 91.2409 455.413 90.3126 450.576 91.2053C438.046 99.4708 441.845 107.182 437.216 111.61Z"/>
	<path fill="#EEB941" transform="scale(2.34105 2.34146)" d="M723.756 42.9338C725.371 42.7629 726.482 42.5744 727.79 43.5938C728.531 45.3435 728.387 47.5432 728.398 49.4179C728.502 68.0342 727.875 86.6846 727.838 105.309C727.829 110.034 728.511 149.43 727.883 151.373C731.497 152.296 735.409 153.019 738.666 154.904C739.889 155.613 740.616 156.292 740.977 157.658C740.815 157.954 740.632 158.22 740.384 158.453C738.931 159.821 736.121 160.365 734.219 160.605C729.705 161.173 724.845 160.679 720.294 160.638C714.029 160.581 707.749 160.76 701.483 160.799C700.258 160.563 699.554 160.274 698.623 159.434C698.03 158.265 697.759 157.545 697.918 156.192C699.617 152.708 705.785 153.517 708.772 151.571C709.512 151.089 709.989 150.582 710.159 149.682C711.36 143.298 710.581 124.635 710.59 117.463C710.611 100.674 711.433 83.5099 710.66 66.7523C710.525 63.8244 710.755 58.3226 709.033 55.8742C706.168 53.6875 700.711 54.8269 698.681 51.5198C698.068 50.5213 698.202 50.2169 698.434 49.1302C701.799 44.983 718.073 44.1263 723.756 42.9338Z"/>
	<path fill="#EEB941" transform="scale(2.34105 2.34146)" d="M514.045 80.9939C515.488 80.787 516.703 80.615 518.144 80.9556C518.949 81.6814 519.159 82.7817 519.331 83.8097C519.973 87.6533 519.889 95.9543 517.601 99.1439C523.47 95.2046 525.79 87.5902 531.932 83.746C535.846 81.2966 540.517 80.737 544.976 81.7929C547.74 82.4476 550.838 83.8205 552.357 86.3642C553.429 88.1582 553.45 90.1991 552.954 92.1808C552.166 95.3291 548.821 100.517 545.965 102.202C544.187 100.433 537.952 96.7833 535.526 96.1597C527.832 94.1816 523.666 105.218 518.06 108.428C518.018 108.452 517.975 108.475 517.932 108.499C520.83 114.931 517.612 141.136 519.513 150.015C519.78 151.259 519.997 151.335 521.021 152.001C524.193 152.462 528.319 152.761 530.925 154.748C531.908 155.498 532.366 156.248 532.537 157.465C531.953 158.643 531.502 159.154 530.308 159.749C528.817 160.492 526.932 160.78 525.287 160.902C520.179 161.28 514.937 160.598 509.81 160.562C505.598 160.533 501.328 161.077 497.129 160.87C495.396 160.785 493.605 160.542 491.959 159.977C490.845 159.596 489.62 159.179 489.069 158.06C489.794 153.059 497.291 153.402 500.477 150.744C500.505 150.721 500.532 150.698 500.559 150.674C500.717 150.326 500.852 149.968 500.963 149.602C502.162 145.65 501.734 108.091 501.313 101.496C501.186 99.511 501.082 96.346 500.062 94.6653C498.085 91.4088 490.446 92.1702 488.556 88.4348C488.393 88.1122 488.679 87.5944 488.8 87.2479C493.422 83.3743 507.742 82.2537 514.045 80.9939Z"/>
</svg>
