<?xml version="1.0" encoding="utf-8" ?>
<svg xmlns="http://www.w3.org/2000/svg" xmlns:xlink="http://www.w3.org/1999/xlink" width="2427" height="727">
	<path fill="#062971" transform="scale(4.22822 4.22674)" d="M184.922 37.9573C189.236 37.7646 193.59 38.2531 197.913 38.2244C207.434 38.1613 218.185 36.2535 227.06 40.7508C230.932 42.7131 233.995 45.9566 235.344 50.1212C236.646 54.1386 236.038 58.5352 234.113 62.25C232.359 65.6335 229.711 68.4305 226.029 69.6093C226.186 69.6425 226.342 69.6802 226.496 69.7223C231.554 71.117 236.207 74.3535 238.811 78.957C241.169 83.1275 241.596 88.2842 240.283 92.8686C239.155 96.8075 236.369 100.703 232.744 102.708C232.223 103.568 230.832 104.317 229.971 104.788C227.094 106.36 223.483 107.182 220.237 107.552C213.875 108.278 207.388 107.586 201.004 107.506C196.361 107.448 186.71 108.158 182.679 106.992C182.499 106.765 182.342 106.527 182.288 106.236C181.392 101.393 188.974 103.65 190.704 101.015C192.132 98.838 191.957 49.3335 190.811 44.576C189.858 43.1253 185.184 42.5563 183.489 41.9359C182.646 41.6271 182.369 41.1923 182.005 40.4219C182.011 39.6762 182.171 39.1208 182.693 38.5638C183.248 37.9723 184.166 37.9969 184.922 37.9573ZM224.12 98.4687C226.531 96.8305 227.858 94.0481 228.386 91.2464C229.123 87.3365 228.724 82.9128 226.405 79.5763C223.617 75.5651 218.971 73.8947 214.341 73.091C210.86 72.4868 206.107 72.0376 202.63 72.6923L202.652 72.767C203.126 74.3889 202.962 76.364 203 78.0625C203.108 82.8472 202.567 96.0804 203.935 99.5401C204.262 100.366 204.855 100.948 205.625 101.374C208.951 103.212 215.465 102.656 218.997 101.614C220.984 101.028 222.588 100.312 224.016 98.8012L224.12 98.4687ZM202.877 44.0142C203.833 45.6072 203.295 63.8139 202.633 66.3678C202.57 66.6206 202.486 66.8675 202.38 67.1057C206.353 67.0186 213.264 66.7567 216.998 67.7C218.181 67.7708 219.6 68.0936 220.538 67.2567C223.203 64.8788 224.11 60.602 224.281 57.1953C224.466 53.4772 223.641 49.6365 221.063 46.8275C218.626 44.1722 215.112 42.9863 211.575 42.8561C210.51 42.8097 209.442 42.8577 208.385 42.9994C206.627 43.4879 204.696 43.8507 202.877 44.0142Z"/>
	<path fill="#062971" transform="scale(4.22822 4.22674)" d="M88.9167 38.0099C90.8567 37.995 93.31 37.888 95.1028 38.707C95.8282 39.0383 96.0254 39.3099 96.2983 40.0213C96.2457 40.2816 96.1721 40.5423 96.0245 40.767C94.5495 43.0133 89.923 43.4764 87.5222 43.9161C86.9925 47.7306 87.158 51.6342 87.1706 55.4758C87.2007 64.6638 87.8163 76.5604 86.6818 85.381C85.8018 92.2227 82.6729 98.6445 77.1254 102.903C70.3808 108.079 61.4963 109.43 53.2169 108.344C49.1591 107.812 45.1538 106.475 41.6862 104.282C30.6146 97.2792 30.7633 84.5134 30.7318 72.9313L30.7561 53.7058C30.7651 51.2825 31.3682 46.8917 30.2161 44.7503C28.7502 42.0257 23.7955 43.5721 21.6722 40.8001C21.5 40.034 21.4822 39.9147 21.757 39.1844C22.3854 38.4888 22.9076 38.3754 23.7899 38.2433C27.8657 38.0325 48.2121 37.3881 50.7997 38.5657C51.1294 38.7157 51.3888 39.0406 51.4884 39.3971C51.6723 40.0552 51.5782 40.7751 51.1759 41.3297C50.0118 42.9349 45.2095 43.2797 43.2367 43.6616C41.7437 49.0515 41.9501 78.1289 42.8223 84.3391C43.5095 89.2315 45.5468 94.1682 49.6 97.2017C53.8075 100.351 59.5368 100.829 64.6061 100.114C69.2857 99.4546 73.3082 97.754 76.2129 93.8593C77.7919 91.7421 79.0335 89.1081 79.5854 86.5236C81.2722 78.6244 80.5171 68.4196 80.5269 60.3089C80.5324 55.7156 80.9755 50.629 80.3133 46.1048C79.6599 41.6412 74.4771 43.753 71.8534 41.6191C71.375 41.23 71.0888 40.7618 71.0354 40.1448C71.0123 39.8771 71.1642 39.1468 71.3595 38.9544C72.8961 37.4406 86.0157 38.0538 88.9167 38.0099Z"/>
	<path fill="#062971" transform="scale(4.22822 4.22674)" d="M340.883 34.3157C341.777 34.2458 343.069 33.9658 343.875 34.408C344.759 41.8358 343.826 49.8093 343.768 57.2863C343.702 65.7301 344.351 74.4042 343.726 82.8209C343.663 83.671 343.496 84.3212 343.014 85.0396C347.724 83.7464 359.828 73.3274 362.287 69.1852C362.763 68.3838 363.304 67.2566 363.043 66.3142C362.598 64.7019 359.362 64.0365 357.965 63.2523C357.278 62.8674 356.848 62.4331 356.635 61.6662C356.716 60.9464 356.981 60.6382 357.481 60.1317C359.39 59.0967 371.982 59.1975 374.367 59.8053C375.035 59.9756 375.552 60.2038 375.917 60.8118C376.033 61.5043 375.992 62.0276 375.686 62.6686C373.725 66.7703 361.911 78.71 357.713 80.1896C361.96 82.4424 367.698 95.0824 371.679 99.4994C374.337 102.448 377.825 102.373 380.126 104.631C380.433 105.399 380.4 105.468 380.171 106.269C379.511 106.932 379.362 106.956 378.435 107.143C376.256 107.906 366.932 107.275 364.174 107.238C364.191 105.954 351.222 87.7658 349.824 86.2802C349.805 86.3755 349.814 86.3499 349.769 86.4605C348.943 88.5179 345.165 90.1775 343.256 90.9744C343.488 91.44 343.659 91.9337 343.765 92.4432C344.219 94.7288 344.761 100.178 343.424 102.118C345.002 102.222 346.726 102.538 348.224 103.038C349.225 103.372 350.968 104.147 351.439 105.149C351.595 105.482 351.519 105.576 351.406 105.909C350.795 106.535 350.145 106.791 349.317 107.001C346.61 107.688 328.435 107.998 326.49 106.845C326.092 106.209 326.004 105.809 326.027 105.061C326.922 102.725 330.827 103.186 332.711 102.026C332.749 102.002 332.787 101.978 332.825 101.953C332.853 101.896 332.881 101.839 332.905 101.78C332.919 101.746 332.932 101.712 332.945 101.678C333.072 101.363 333.186 101.044 333.222 100.704C333.748 95.795 333.89 44.985 333.044 43.1805C331.641 40.1908 327.491 41.3982 325.76 39.3067C325.737 38.8227 325.685 38.5429 325.948 38.1062C327.225 35.9915 338.024 34.9838 340.883 34.3157Z"/>
	<path fill="#062971" transform="scale(4.22822 4.22674)" d="M132.68 37.0902C132.701 37.0864 132.723 37.0817 132.744 37.0789C139.93 36.159 151.289 37.4145 157.318 41.726C158.957 42.8977 159.752 44.2839 160.071 46.2706C160.455 48.6659 160.272 53.8322 158.816 55.8562C156.233 57.157 152.538 48.9245 150.367 46.9058C148.373 45.0513 145.737 43.9935 143.133 43.3209C136.504 41.6082 129.096 42.5024 123.181 46.0127C117.025 49.6659 113.323 56.1075 111.629 62.8897C109.373 71.9148 110.135 82.5149 115.029 90.5885C118.42 96.182 123.725 100.473 130.147 102.036C136.626 103.614 143.29 102.462 148.961 99.0185C150.3 98.1261 151.324 97.2356 152.308 95.9582C153.555 94.3376 156.398 87.9544 158.069 87.5246C158.79 87.3391 159.026 87.4971 159.63 87.8492C160.306 88.7987 160.516 89.7454 160.637 90.8884C160.945 93.8189 161.101 97.866 159.151 100.253C155.079 105.236 144.635 107.742 138.498 108.349C128.504 109.338 117.958 107.193 110.082 100.741C102.786 94.7633 98.9488 86.8015 98.0444 77.4873C97.0066 67.5642 99.9703 57.6371 106.279 49.905C112.811 42.0035 122.677 38.0446 132.68 37.0902Z"/>
	<path fill="#062971" transform="scale(4.22822 4.22674)" d="M396.38 58.9673C396.86 58.904 397.342 58.8618 397.826 58.8408C403.518 58.5771 409.306 60.0518 413.587 63.9715C416.251 66.4105 419.02 70.499 419.071 74.2512C419.077 74.6547 418.983 75.194 418.686 75.482C415.849 78.2263 391.739 81.6271 387.292 81.4976C389.068 83.621 387.802 90.4057 393.394 96.135C396.144 98.9526 399.818 100.392 403.738 100.441C407.123 100.483 412.03 99.5057 414.541 97.065C415.418 96.7212 416.547 96.2929 417.505 96.4391C418.104 96.5303 418.262 96.7236 418.609 97.1753C418.706 98.0182 418.405 98.7003 417.982 99.4075C415.492 103.573 409.645 106.647 405.027 107.817C399.822 109.136 393.419 108.219 388.815 105.469C383.859 102.509 380.183 97.2371 378.779 91.6675C376.984 84.5447 378.057 75.6598 381.882 69.3444C385.145 63.956 390.317 60.4401 396.38 58.9673ZM387.522 77.1357C390.338 76.8487 393.417 76.6886 396.086 75.6654C399.16 75.1788 406.219 74.7301 408.11 72.2065C408.486 71.7037 408.627 71.1171 408.522 70.4987C408.201 68.5919 405.991 66.7951 404.493 65.7776C402.668 64.5383 400.652 63.509 398.4 63.7295C395.533 64.3895 393.257 65.578 391.658 68.1233C389.984 70.7863 389.713 74.9643 387.522 77.1357Z"/>
	<path fill="#062971" transform="scale(4.22822 4.22674)" d="M264.135 58.967C264.844 58.877 265.556 58.8118 266.27 58.7715C271.865 58.5077 277.534 60.2797 281.7 64.0881C284.143 66.3215 287.253 70.4736 287.347 73.9276C287.364 74.5241 287.214 75.122 286.781 75.5455C284.007 78.2605 260.358 81.6104 255.604 81.5683C256.535 82.7458 256.377 85.1859 256.643 86.6516C257.313 90.3578 259.519 94.4338 262.341 96.9064C265.444 99.6261 269.374 100.663 273.45 100.377C276.153 100.187 280.44 99.3054 282.294 97.19C283.056 96.8451 283.93 96.4768 284.774 96.4019C285.569 96.3313 285.946 96.5323 286.531 96.9991C286.78 97.7998 286.607 98.4149 286.234 99.1485C284.277 103 279.058 105.922 275.032 107.216C269.5 108.993 263.145 108.592 257.971 105.918C252.801 103.245 249.032 98.3646 247.297 92.8537C245.153 86.0465 245.775 77.3106 249.108 70.9777C252.358 64.8033 257.562 61.0023 264.135 58.967ZM255.398 77.2367C258.403 76.757 261.795 76.4477 264.674 75.4947C267.629 75.1263 274.002 74.6836 275.929 72.2505C276.361 71.7043 276.562 71.0622 276.474 70.3673C276.259 68.6605 274.457 67.1315 273.161 66.1725C271.028 64.595 268.797 63.4565 266.1 63.7292C263.079 64.74 260.659 66.1613 259.186 69.0967C257.859 71.7419 257.606 75.151 255.398 77.2367Z"/>
	<path fill="#062971" transform="scale(4.22822 4.22674)" d="M464.506 58.9673C464.735 58.9435 464.966 58.9221 465.196 58.9032C470.973 58.4089 476.683 59.7304 481.173 63.5445C483.65 65.6488 487.244 70.3723 487.407 73.8078C487.438 74.457 487.352 75.0519 486.889 75.5326C484.448 78.063 460.258 81.5463 455.75 81.5489C457.165 83.4407 455.921 89.9628 461.014 95.5835C463.689 98.5368 467.217 100.154 471.191 100.34C474.859 100.511 479.908 99.5575 482.71 97.0075C483.445 96.7181 484.529 96.344 485.338 96.4291C485.996 96.4983 486.191 96.6925 486.602 97.1637C486.741 97.935 486.45 98.6105 486.072 99.2681C483.668 103.452 477.947 106.518 473.397 107.685C467.86 109.107 461.566 108.116 456.684 105.199C451.679 102.209 448.286 96.9303 446.888 91.3395C445.115 84.2469 445.997 76.1831 449.776 69.8893C453.139 64.2866 458.152 60.5474 464.506 58.9673ZM455.7 77.1708C458.689 76.7476 462.013 76.4164 464.889 75.495C467.919 75.1322 473.985 74.8364 475.962 72.2606C476.4 71.6899 476.569 71.0489 476.47 70.3353C476.228 68.5944 474.39 67.0574 473.056 66.0898C470.994 64.5938 468.77 63.4959 466.181 63.7295C463.128 64.7299 460.808 65.9758 459.307 68.9379C458.013 71.4928 457.697 75.0917 455.7 77.1708Z"/>
	<path fill="#062971" transform="scale(4.22822 4.22674)" d="M514.998 98.8071C515.048 98.7699 515.097 98.732 515.146 98.6934C518.145 96.313 526.804 72.5696 527.259 67.8781C527.534 65.0472 522.758 64.2965 521.351 62.453C520.882 61.8385 520.943 61.4924 521.046 60.7845C521.221 60.5563 521.42 60.3841 521.687 60.2713C523.561 59.4798 537.573 59.2937 539.469 60.0988C540.109 60.3703 540.206 60.5776 540.456 61.187C540.057 63.7162 535.854 64.9443 534.266 66.8083C531.606 69.9294 530.217 80.9319 526.849 84.3568C526.809 84.3975 526.767 84.4368 526.727 84.4769C527.009 87.0732 524.405 91.5121 523.359 93.9636C519.154 103.815 514.961 114.861 508.634 123.571C506.141 127.004 502.688 130.941 498.267 131.609C497.069 131.79 495.991 131.637 494.997 130.894C493.862 130.046 492.895 128.3 492.718 126.904C492.156 122.453 499.714 120.655 502.723 119.077C504.529 118.131 506.464 116.764 507.738 115.154C508.512 114.176 509.793 112.27 509.595 110.978C509.588 110.93 509.578 110.882 509.57 110.835C509.953 109.356 494.787 70.7046 492.893 67.2792C491.602 64.9434 487.595 64.1295 486.931 61.7684C486.947 60.9433 487.025 60.4742 487.528 59.8078C490.742 59.6888 508.541 59.413 510.597 60.1507C511.093 60.3289 511.281 60.4765 511.49 60.9704C511.664 61.3798 511.665 61.9572 511.505 62.3681C510.905 63.9084 508.753 64.06 507.39 64.6898C499.575 68.3024 517.243 92.7339 514.998 98.8071Z"/>
	<path fill="#062971" transform="scale(4.22822 4.22674)" d="M434.882 34.3158C435.741 34.2217 436.517 34.1468 437.381 34.284C438.068 39.5392 437.891 100.621 437.413 102C439.738 102.496 442.689 103.187 444.691 104.495C445.242 104.855 445.473 105.036 445.611 105.671C445.543 105.805 445.467 105.928 445.363 106.038C443.212 108.316 425.866 107.429 422.162 107.427C420.84 107.359 420.309 107.207 419.402 106.209C419.304 105.877 419.17 105.606 419.258 105.26C419.889 102.796 424.37 103.105 426.154 101.956C426.192 101.932 426.229 101.906 426.267 101.881C426.435 101.648 426.566 101.414 426.637 101.133C427.757 96.739 427.051 76.6899 427.014 70.6776C426.96 61.8007 427.446 52.8606 426.738 44.0016C426.68 43.279 426.56 42.6756 426.175 42.0488C425.163 40.8404 421.943 41.1768 420.52 40.2615C419.817 39.8088 419.59 39.4793 419.411 38.7031C419.471 38.5422 419.538 38.3942 419.636 38.2523C421.143 36.0806 431.92 34.9156 434.882 34.3158Z"/>
	<path fill="#062971" transform="scale(4.22822 4.22674)" d="M304.375 58.1265C305.235 58.0031 306.014 57.9295 306.886 57.9892C307.087 58.2028 307.218 58.2812 307.266 58.5756C307.743 61.521 307.535 67.8112 305.781 70.2167C310.138 67.4252 311.596 61.9055 316.266 59.2008C318.403 57.9633 320.889 58.1393 323.208 58.7568C324.944 59.219 327.447 60.071 328.373 61.754C328.802 62.5325 328.664 63.3271 328.431 64.1421C327.863 66.1296 326.474 69.1243 324.559 70.1468C322.726 71.1249 318.597 67.2703 316.488 66.6164C315.154 67.8131 313.28 68.6055 311.85 69.7981C309.908 71.418 308.226 74.1336 306.064 75.2796C306.1 75.3419 306.137 75.4041 306.169 75.4684C307.069 77.2635 307.322 99.2354 306.67 101.268C308.636 103.415 313.323 102.19 314.885 104.634C315.266 105.229 315.291 105.766 315.143 106.436C314.085 107.444 312.79 107.34 311.394 107.401C308.348 107.534 291.217 108.135 289.74 106.785C289.323 106.105 289.212 105.713 289.318 104.92C290.633 102.646 293.673 103.19 295.668 101.94C295.706 101.917 295.742 101.893 295.779 101.869C295.818 101.797 295.856 101.725 295.89 101.65C296.977 99.2691 296.879 69.5036 295.963 67.0808C295.408 64.8868 289.458 64.6239 288.654 62.1921C288.595 62.0149 288.85 61.6442 288.941 61.4681C292.587 59.2513 299.959 59.1632 304.375 58.1265Z"/>
</svg>
