<?xml version="1.0" encoding="utf-8" ?>
<svg xmlns="http://www.w3.org/2000/svg" xmlns:xlink="http://www.w3.org/1999/xlink" width="1024" height="1024">
	<path fill="#DC4349" d="M498.063 349.332C497.772 310.587 501.261 271.758 514.841 235.174C517.032 229.274 519.383 221.574 523.953 217.087C526.308 214.775 529.435 213.964 532.671 214.069C540.037 214.309 551.733 218.362 556.704 223.983C557.697 225.105 558.841 226.968 558.797 228.526C558.582 236.087 551.499 247.069 548.562 254.131C546.273 259.696 544.258 265.369 542.525 271.132C537.971 285.863 534.161 300.798 532.063 316.097C530.577 326.929 530.109 337.929 528.595 348.716C529.404 348.962 530.168 349.124 531.005 349.247C547.728 350.458 563.578 353.718 578.024 362.647C599.001 362.117 618.771 364.186 636.537 376.427C642.601 380.605 647.975 385.907 654.327 389.636C667.365 397.29 676.045 399.093 688.139 410.486C704.529 425.927 708.772 441.008 711.853 462.548C729.125 480.31 737.791 501.513 737.32 526.477C736.991 543.964 731.554 558.067 720.903 571.77C726.923 586.157 727.39 600.631 724.823 615.919C720.334 642.653 708.484 661.337 686.579 676.941C686.812 694.924 678.818 712.427 667.592 726.113C652.47 744.55 636.288 754.695 612.511 757.116C607.649 767.071 601.058 775.86 592.347 782.784C578.08 794.124 560.634 799.964 542.446 797.939C533.043 804.112 524.515 808.533 513.055 809.092C501.039 809.679 490.354 805.73 481.451 797.666C470.091 799.66 459.425 797.694 448.923 793.12C433.477 786.392 417.994 773.626 411.728 757.579C394.773 754.909 380.637 749.652 367.739 738.016C348.949 721.066 338.141 701.946 336.897 676.543C318.101 664.014 306.96 647.554 301.109 625.802C296.981 610.455 294.313 586.676 302.685 572.252C300.544 568.824 297.927 565.688 295.789 562.218C289.747 552.411 287.249 540.861 286.738 529.452C285.589 503.824 294.555 481.066 311.82 462.332C313.356 459.398 313.28 453.229 313.95 449.83C315.093 443.918 316.989 438.177 319.592 432.747C326.999 417.213 339.467 404.658 354.949 397.141C360.7 394.28 367.277 391.827 372.602 388.259C376.045 385.951 379.14 382.806 382.369 380.19C400.364 365.611 424.036 360.685 446.722 363.006C460.051 355.549 482.604 347.364 498.063 349.332Z"/>
	<path fill="#EE6162" d="M498.063 349.332C497.772 310.587 501.261 271.758 514.841 235.174C517.032 229.274 519.383 221.574 523.953 217.087C526.308 214.775 529.435 213.964 532.671 214.069C540.037 214.309 551.733 218.362 556.704 223.983C557.697 225.105 558.841 226.968 558.797 228.526C558.582 236.087 551.499 247.069 548.562 254.131C546.273 259.696 544.258 265.369 542.525 271.132C537.971 285.863 534.161 300.798 532.063 316.097C530.577 326.929 530.109 337.929 528.595 348.716C529.404 348.962 530.168 349.124 531.005 349.247C547.728 350.458 563.578 353.718 578.024 362.647C599.001 362.117 618.771 364.186 636.537 376.427C642.601 380.605 647.975 385.907 654.327 389.636C667.365 397.29 676.045 399.093 688.139 410.486C704.529 425.927 708.772 441.008 711.853 462.548C711.155 466.576 710.414 470.471 708.702 474.214C703.725 485.097 693.369 488.873 683.014 492.855C685.364 508.265 684.413 524.209 676.761 538.093C671.173 548.309 661.679 555.82 650.452 558.908C635.077 563.176 623.755 557.541 610.608 550.161C610.286 553.624 609.975 557.096 609.367 560.522C606.929 574.91 598.774 587.699 586.759 595.98C574.983 604.058 560.469 607.1 546.441 604.432C530.318 601.326 520.905 591.433 511.973 578.386C509.999 581.136 507.986 583.859 505.937 586.553C498.038 596.803 486.692 603.177 473.848 604.783C459.892 606.566 445.806 602.644 434.78 593.905C420.816 582.89 415.647 567.744 413.702 550.58C403.559 557.385 391.713 561.929 379.353 560.12C367.813 558.432 357.661 551.945 350.764 542.618C340.186 528.314 338.653 509.706 341.194 492.591C330.429 488.854 320.305 484.707 315.805 473.187C314.588 470.073 314.021 465.678 312.237 462.943C312.102 462.737 311.959 462.536 311.82 462.332C313.356 459.398 313.28 453.229 313.95 449.83C315.093 443.918 316.989 438.177 319.592 432.747C326.999 417.213 339.467 404.658 354.949 397.141C360.7 394.28 367.277 391.827 372.602 388.259C376.045 385.951 379.14 382.806 382.369 380.19C400.364 365.611 424.036 360.685 446.722 363.006C460.051 355.549 482.604 347.364 498.063 349.332Z"/>
	<path fill="#FE9998" d="M451.593 391.969C452.554 390.507 453.547 389.094 454.715 387.787C464.816 376.482 484.109 373.262 498.524 372.434C498.635 377.673 498.748 382.957 499.644 388.133C506.33 390.681 516.787 392.605 523.57 389.642C525.325 388.875 526.524 387.74 527.17 385.894C528.58 381.868 527.962 376.601 527.856 372.356C542.563 374.647 562.119 376.378 571.685 389.467C572.58 390.692 573.322 392.017 574.05 393.346C585.709 398.879 598.621 402.477 611.286 404.862C620.148 406.53 631.314 406.314 639.395 410.555C643.735 412.833 646.709 418.909 648.248 423.421C652.601 436.181 651.699 452.825 645.583 464.889C641.678 472.592 635.054 478.549 626.774 481.155C613.267 485.406 601.665 480.265 589.785 474.141C586.997 488.493 585.131 502.341 573.155 512.21C564.641 519.172 553.697 522.44 542.76 521.287C529.449 519.973 520.74 512.12 512.537 502.153C503.229 511.909 495.532 520.204 481.348 521.371C470.407 522.271 459.685 519 451.311 511.866C439.884 502.131 436.475 487.55 435.376 473.179L431.178 475.581C420.84 481.388 408.986 484.643 397.295 481.226C389.223 478.867 383.035 473.438 379.041 466.14C372.548 454.28 371.626 438.043 375.405 425.188C376.913 420.058 379.508 414.757 383.873 411.487C392.893 404.729 414.399 406.084 425.995 403.397C435.202 401.263 443.406 396.507 451.593 391.969Z"/>
	<path fill="#FEE4CD" d="M451.593 391.969C452.554 390.507 453.547 389.094 454.715 387.787C464.816 376.482 484.109 373.262 498.524 372.434C498.635 377.673 498.748 382.957 499.644 388.133C506.33 390.681 516.787 392.605 523.57 389.642C525.325 388.875 526.524 387.74 527.17 385.894C528.58 381.868 527.962 376.601 527.856 372.356C542.563 374.647 562.119 376.378 571.685 389.467C572.58 390.692 573.322 392.017 574.05 393.346C574.072 394.318 574.089 395.296 574.019 396.267C573.665 401.226 570.605 405.323 566.874 408.384C550.062 422.176 516.263 423.011 495.483 420.535C482.715 419.014 462.569 415.376 454.292 404.254C451.301 400.236 450.943 396.765 451.593 391.969Z"/>
	<path fill="#915925" d="M498.063 349.332C497.772 310.587 501.261 271.758 514.841 235.174C517.032 229.274 519.383 221.574 523.953 217.087C526.308 214.775 529.435 213.964 532.671 214.069C540.037 214.309 551.733 218.362 556.704 223.983C557.697 225.105 558.841 226.968 558.797 228.526C558.582 236.087 551.499 247.069 548.562 254.131C546.273 259.696 544.258 265.369 542.525 271.132C537.971 285.863 534.161 300.798 532.063 316.097C530.577 326.929 530.109 337.929 528.595 348.716C529.404 348.962 530.168 349.124 531.005 349.247L529.295 349.468C527.354 352.166 527.918 368.107 527.856 372.356C527.962 376.601 528.58 381.868 527.17 385.894C526.524 387.74 525.325 388.875 523.57 389.642C516.787 392.605 506.33 390.681 499.644 388.133C498.748 382.957 498.635 377.673 498.524 372.434C498.523 364.739 498.244 357.026 498.063 349.332Z"/>
	<path fill="#C82F38" d="M302.685 572.252C308.384 576.787 316.418 579.072 323.479 580.286C323.64 600.153 328.7 619.283 343.28 633.547C353.587 643.632 367.879 649.779 382.373 649.501C391.523 649.326 399.749 646.357 407.992 642.624C413.865 662.932 420.211 676.722 439.556 687.476C452.346 694.599 467.472 696.252 481.498 692.059C494.153 688.324 503.056 680.544 511.437 670.663C521.69 683.382 533.996 692.203 550.605 693.944C565.985 695.587 581.379 690.965 593.309 681.121C605.978 670.796 611.707 657.302 615.951 641.897C630.016 649.293 642.701 651.851 658.269 647.045C672.773 642.431 684.842 632.23 691.808 618.697C697.838 607.218 700.159 593.566 700.056 580.695C707.62 578.494 714.313 576.21 720.903 571.77C726.923 586.157 727.39 600.631 724.823 615.919C720.334 642.653 708.484 661.337 686.579 676.941C686.812 694.924 678.818 712.427 667.592 726.113C652.47 744.55 636.288 754.695 612.511 757.116C607.649 767.071 601.058 775.86 592.347 782.784C578.08 794.124 560.634 799.964 542.446 797.939C533.043 804.112 524.515 808.533 513.055 809.092C501.039 809.679 490.354 805.73 481.451 797.666C470.091 799.66 459.425 797.694 448.923 793.12C433.477 786.392 417.994 773.626 411.728 757.579C394.773 754.909 380.637 749.652 367.739 738.016C348.949 721.066 338.141 701.946 336.897 676.543C318.101 664.014 306.96 647.554 301.109 625.802C296.981 610.455 294.313 586.676 302.685 572.252Z"/>
</svg>
